<svg xmlns="http://www.w3.org/2000/svg" preserveAspectRatio="xMidYMid meet" viewBox="154731.05 5393848 250.15625 172.5"><circle cx="154979.20658942798" cy="5394007.314894852" r="1" fill="red" fill-opacity="0.7"/><circle cx="154938.1630931725" cy="5393945.676923352" r="1" fill="red" fill-opacity="0.7"/><circle cx="154912.54847834096" cy="5393907.226338779" r="1" fill="red" fill-opacity="0.7"/><circle cx="154894.447929138" cy="5393886.834080763" r="1" fill="red" fill-opacity="0.7"/><circle cx="154874.8223029111" cy="5393869.144447532" r="1" fill="red" fill-opacity="0.7"/><circle cx="154852.914627123" cy="5393857.07497759" r="1" fill="red" fill-opacity="0.7"/><circle cx="154825.96417840195" cy="5393849.842516497" r="1" fill="red" fill-opacity="0.7"/><circle cx="154802.7206687243" cy="5393850.195693872" r="1" fill="red" fill-opacity="0.7"/><circle cx="154778.41962388414" cy="5393857.888821759" r="1" fill="red" fill-opacity="0.7"/><circle cx="154758.71607401373" cy="5393871.954517222" r="1" fill="red" fill-opacity="0.7"/><circle cx="154746.25942299396" cy="5393887.908972762" r="1" fill="red" fill-opacity="0.7"/><circle cx="154739.5691215973" cy="5393901.836513204" r="1" fill="red" fill-opacity="0.7"/><circle cx="154735.1497378128" cy="5393916.670057819" r="1" fill="red" fill-opacity="0.7"/><circle cx="154733.0457994368" cy="5393932.348188255" r="1" fill="red" fill-opacity="0.7"/><circle cx="154734.31484163183" cy="5393947.335338738" r="1" fill="red" fill-opacity="0.7"/><circle cx="154738.6563017728" cy="5393961.892553211" r="1" fill="red" fill-opacity="0.7"/><circle cx="154745.61376994735" cy="5393975.252042331" r="1" fill="red" fill-opacity="0.7"/><circle cx="154753.96273175685" cy="5393986.907060647" r="1" fill="red" fill-opacity="0.7"/><circle cx="154762.44527695532" cy="5393995.552360394" r="1" fill="red" fill-opacity="0.7"/><circle cx="154775.592108818" cy="5394005.763959299" r="1" fill="red" fill-opacity="0.7"/><circle cx="154789.91892728308" cy="5394013.42650482" r="1" fill="red" fill-opacity="0.7"/><circle cx="154804.06763456293" cy="5394017.480439282" r="1" fill="red" fill-opacity="0.7"/><circle cx="154819.50764793594" cy="5394018.632125532" r="1" fill="red" fill-opacity="0.7"/><circle cx="154837.07386358312" cy="5394017.895046314" r="1" fill="red" fill-opacity="0.7"/><circle cx="154856.43232303206" cy="5394012.474444711" r="1" fill="red" fill-opacity="0.7"/><circle cx="154872.22855877562" cy="5394003.875196544" r="1" fill="red" fill-opacity="0.7"/><circle cx="154908.27380989448" cy="5393979.4595176065" r="1" fill="red" fill-opacity="0.7"/><circle cx="154926.24077570855" cy="5393976.603348048" r="1" fill="red" fill-opacity="0.7"/><text font-size="10" x="154979.20658942798" y="5394007.314894852">0</text><text font-size="10" x="154938.1630931725" y="5393945.676923352">1</text><text font-size="10" x="154912.54847834096" y="5393907.226338779">2</text><text font-size="10" x="154894.447929138" y="5393886.834080763">3</text><text font-size="10" x="154874.8223029111" y="5393869.144447532">4</text><text font-size="10" x="154852.914627123" y="5393857.07497759">5</text><text font-size="10" x="154825.96417840195" y="5393849.842516497">6</text><text font-size="10" x="154802.7206687243" y="5393850.195693872">7</text><text font-size="10" x="154778.41962388414" y="5393857.888821759">8</text><text font-size="10" x="154758.71607401373" y="5393871.954517222">9</text><text font-size="10" x="154746.25942299396" y="5393887.908972762">10</text><text font-size="10" x="154739.5691215973" y="5393901.836513204">11</text><text font-size="10" x="154735.1497378128" y="5393916.670057819">12</text><text font-size="10" x="154733.0457994368" y="5393932.348188255">13</text><text font-size="10" x="154734.31484163183" y="5393947.335338738">14</text><text font-size="10" x="154738.6563017728" y="5393961.892553211">15</text><text font-size="10" x="154745.61376994735" y="5393975.252042331">16</text><text font-size="10" x="154753.96273175685" y="5393986.907060647">17</text><text font-size="10" x="154762.44527695532" y="5393995.552360394">18</text><text font-size="10" x="154775.592108818" y="5394005.763959299">19</text><text font-size="10" x="154789.91892728308" y="5394013.42650482">20</text><text font-size="10" x="154804.06763456293" y="5394017.480439282">21</text><text font-size="10" x="154819.50764793594" y="5394018.632125532">22</text><text font-size="10" x="154837.07386358312" y="5394017.895046314">23</text><text font-size="10" x="154856.43232303206" y="5394012.474444711">24</text><text font-size="10" x="154872.22855877562" y="5394003.875196544">25</text><text font-size="10" x="154908.27380989448" y="5393979.4595176065">26</text><text font-size="10" x="154926.24077570855" y="5393976.603348048">27</text><path d="M 154979.20658942798 5394007.314894852 L 154938.1630931725 5393945.676923352 L 154912.54847834096 5393907.226338779 L 154894.447929138 5393886.834080763 L 154874.8223029111 5393869.144447532 L 154852.914627123 5393857.07497759 L 154825.96417840195 5393849.842516497 L 154802.7206687243 5393850.195693872 L 154778.41962388414 5393857.888821759 L 154758.71607401373 5393871.954517222 L 154746.25942299396 5393887.908972762 L 154739.5691215973 5393901.836513204 L 154735.1497378128 5393916.670057819 L 154733.0457994368 5393932.348188255 L 154734.31484163183 5393947.335338738 L 154738.6563017728 5393961.892553211 L 154745.61376994735 5393975.252042331 L 154753.96273175685 5393986.907060647 L 154762.44527695532 5393995.552360394 L 154775.592108818 5394005.763959299 L 154789.91892728308 5394013.42650482 L 154804.06763456293 5394017.480439282 L 154819.50764793594 5394018.632125532 L 154837.07386358312 5394017.895046314 L 154856.43232303206 5394012.474444711 L 154872.22855877562 5394003.875196544 L 154908.27380989448 5393979.4595176065 L 154926.24077570855 5393976.603348048" fill-opacity="0" stroke="green" stroke-opacity="1"/></svg>